<mxfile host="app.diagrams.net" agent="Mozilla/5.0 (Windows NT 10.0; Win64; x64) AppleWebKit/537.36 (KHTML, like Gecko) Chrome/130.0.0.0 Safari/537.36 Edg/130.0.0.0" version="24.8.0">
  <diagram name="Strona-1" id="d_7YKjB2n6ffb9aCzBWr">
    <mxGraphModel dx="547" dy="651" grid="1" gridSize="10" guides="1" tooltips="1" connect="1" arrows="1" fold="1" page="1" pageScale="1" pageWidth="827" pageHeight="1169" math="0" shadow="0">
      <root>
        <mxCell id="0" />
        <mxCell id="1" parent="0" />
        <mxCell id="yivwJKhGF_lYdVaXFTyE-1" value="Firma LOS" style="swimlane;whiteSpace=wrap;html=1;" vertex="1" parent="1">
          <mxGeometry x="70" y="100" width="640" height="600" as="geometry" />
        </mxCell>
        <mxCell id="yivwJKhGF_lYdVaXFTyE-6" value="Towar" style="swimlane;childLayout=stackLayout;horizontal=1;startSize=50;horizontalStack=0;rounded=1;fontSize=14;fontStyle=0;strokeWidth=2;resizeParent=0;resizeLast=1;shadow=0;dashed=0;align=center;arcSize=4;whiteSpace=wrap;html=1;" vertex="1" parent="yivwJKhGF_lYdVaXFTyE-1">
          <mxGeometry x="36" y="80" width="160" height="120" as="geometry" />
        </mxCell>
        <mxCell id="yivwJKhGF_lYdVaXFTyE-7" value="+Attribute1&#xa;+Attribute2&#xa;+Attribute3" style="align=left;strokeColor=none;fillColor=none;spacingLeft=4;fontSize=12;verticalAlign=top;resizable=0;rotatable=0;part=1;html=1;" vertex="1" parent="yivwJKhGF_lYdVaXFTyE-6">
          <mxGeometry y="50" width="160" height="70" as="geometry" />
        </mxCell>
        <mxCell id="yivwJKhGF_lYdVaXFTyE-8" value="Klient" style="swimlane;childLayout=stackLayout;horizontal=1;startSize=50;horizontalStack=0;rounded=1;fontSize=14;fontStyle=0;strokeWidth=2;resizeParent=0;resizeLast=1;shadow=0;dashed=0;align=center;arcSize=4;whiteSpace=wrap;html=1;" vertex="1" parent="yivwJKhGF_lYdVaXFTyE-1">
          <mxGeometry x="460" y="300" width="160" height="120" as="geometry" />
        </mxCell>
        <mxCell id="yivwJKhGF_lYdVaXFTyE-9" value="+imię&lt;div&gt;+nazwisko&lt;/div&gt;&lt;div&gt;+adres&lt;/div&gt;" style="align=left;strokeColor=none;fillColor=none;spacingLeft=4;fontSize=12;verticalAlign=top;resizable=0;rotatable=0;part=1;html=1;" vertex="1" parent="yivwJKhGF_lYdVaXFTyE-8">
          <mxGeometry y="50" width="160" height="70" as="geometry" />
        </mxCell>
        <mxCell id="yivwJKhGF_lYdVaXFTyE-10" value="Zamówienie" style="swimlane;childLayout=stackLayout;horizontal=1;startSize=50;horizontalStack=0;rounded=1;fontSize=14;fontStyle=0;strokeWidth=2;resizeParent=0;resizeLast=1;shadow=0;dashed=0;align=center;arcSize=4;whiteSpace=wrap;html=1;" vertex="1" parent="yivwJKhGF_lYdVaXFTyE-1">
          <mxGeometry x="460" y="80" width="160" height="120" as="geometry" />
        </mxCell>
        <mxCell id="yivwJKhGF_lYdVaXFTyE-11" value="+numer_zamówienia&lt;div&gt;+data_zamówienia&lt;/div&gt;" style="align=left;strokeColor=none;fillColor=none;spacingLeft=4;fontSize=12;verticalAlign=top;resizable=0;rotatable=0;part=1;html=1;" vertex="1" parent="yivwJKhGF_lYdVaXFTyE-10">
          <mxGeometry y="50" width="160" height="70" as="geometry" />
        </mxCell>
        <mxCell id="yivwJKhGF_lYdVaXFTyE-12" value="Pracownik" style="swimlane;childLayout=stackLayout;horizontal=1;startSize=50;horizontalStack=0;rounded=1;fontSize=14;fontStyle=0;strokeWidth=2;resizeParent=0;resizeLast=1;shadow=0;dashed=0;align=center;arcSize=4;whiteSpace=wrap;html=1;" vertex="1" parent="yivwJKhGF_lYdVaXFTyE-1">
          <mxGeometry x="250" y="80" width="160" height="120" as="geometry" />
        </mxCell>
        <mxCell id="yivwJKhGF_lYdVaXFTyE-13" value="+stanowisko&lt;div&gt;+funkcja&lt;/div&gt;&lt;div&gt;+imie&lt;/div&gt;&lt;div&gt;+nazwisko&lt;/div&gt;" style="align=left;strokeColor=none;fillColor=none;spacingLeft=4;fontSize=12;verticalAlign=top;resizable=0;rotatable=0;part=1;html=1;" vertex="1" parent="yivwJKhGF_lYdVaXFTyE-12">
          <mxGeometry y="50" width="160" height="70" as="geometry" />
        </mxCell>
        <mxCell id="yivwJKhGF_lYdVaXFTyE-17" value="Dostawca" style="swimlane;childLayout=stackLayout;horizontal=1;startSize=50;horizontalStack=0;rounded=1;fontSize=14;fontStyle=0;strokeWidth=2;resizeParent=0;resizeLast=1;shadow=0;dashed=0;align=center;arcSize=4;whiteSpace=wrap;html=1;" vertex="1" parent="yivwJKhGF_lYdVaXFTyE-1">
          <mxGeometry x="36" y="300" width="160" height="120" as="geometry" />
        </mxCell>
        <mxCell id="yivwJKhGF_lYdVaXFTyE-18" value="+Attribute1&#xa;+Attribute2&#xa;+Attribute3" style="align=left;strokeColor=none;fillColor=none;spacingLeft=4;fontSize=12;verticalAlign=top;resizable=0;rotatable=0;part=1;html=1;" vertex="1" parent="yivwJKhGF_lYdVaXFTyE-17">
          <mxGeometry y="50" width="160" height="70" as="geometry" />
        </mxCell>
        <mxCell id="yivwJKhGF_lYdVaXFTyE-19" value="" style="fontSize=12;html=1;endArrow=ERoneToMany;startArrow=ERmandOne;rounded=0;exitX=0.5;exitY=0;exitDx=0;exitDy=0;entryX=0.5;entryY=1;entryDx=0;entryDy=0;" edge="1" parent="yivwJKhGF_lYdVaXFTyE-1" source="yivwJKhGF_lYdVaXFTyE-8" target="yivwJKhGF_lYdVaXFTyE-11">
          <mxGeometry width="100" height="100" relative="1" as="geometry">
            <mxPoint x="280" y="350" as="sourcePoint" />
            <mxPoint x="490" y="230" as="targetPoint" />
          </mxGeometry>
        </mxCell>
      </root>
    </mxGraphModel>
  </diagram>
</mxfile>
